<svg width="30" height="30" viewBox="0 0 30 30" fill="none" xmlns="http://www.w3.org/2000/svg">
<path fill-rule="evenodd" clip-rule="evenodd" d="M15 2.5C8.09937 2.5 2.5 8.09937 2.5 15C2.5 21.9006 8.09937 27.5 15 27.5C21.8875 27.5 27.5 21.9006 27.5 15C27.5 8.09937 21.8875 2.5 15 2.5ZM23.2562 8.26188C24.7475 10.0788 25.6425 12.3969 25.6694 14.905C25.3169 14.8375 21.7919 14.1187 18.24 14.5662C18.1587 14.39 18.0906 14.2 18.0094 14.0106C17.7925 13.4956 17.5481 12.9669 17.3044 12.465C21.2362 10.865 23.0262 8.56 23.2562 8.26188ZM15 4.34375C17.7113 4.34375 20.1925 5.36063 22.0769 7.02812C21.8869 7.29938 20.2738 9.455 16.4775 10.8781C14.7288 7.665 12.79 5.035 12.4919 4.62813C13.2919 4.43875 14.1325 4.34375 15 4.34375ZM10.4581 5.34688C10.7425 5.72625 12.6406 8.37 14.4169 11.5156C9.4275 12.8444 5.02125 12.8175 4.54688 12.8175C5.23875 9.50937 7.47563 6.75688 10.4581 5.34688ZM4.31687 15.0138C4.31687 14.905 4.31687 14.7969 4.31687 14.6881C4.77813 14.7019 9.95687 14.7694 15.285 13.1694C15.5969 13.7656 15.8813 14.3763 16.1525 14.9862C16.0169 15.0269 15.8675 15.0675 15.7325 15.1081C10.2281 16.8844 7.3 21.7375 7.05562 22.1444C5.36062 20.2606 4.31687 17.7519 4.31687 15.0138ZM15 25.6831C12.5325 25.6831 10.255 24.8425 8.45187 23.4325C8.64187 23.0394 10.8106 18.8638 16.8306 16.7625C16.8575 16.7487 16.8713 16.7488 16.8988 16.7356C18.4038 20.6269 19.0138 23.8938 19.1763 24.8294C17.8875 25.385 16.4775 25.6831 15 25.6831ZM20.9519 23.8531C20.8431 23.2025 20.2738 20.0844 18.8775 16.2475C22.2262 15.7188 25.1544 16.5862 25.5206 16.7087C25.06 19.6775 23.3512 22.2394 20.9519 23.8531Z" fill="black"/>
</svg>
