<svg width="85" height="60" viewBox="0 0 85 60" fill="none" xmlns="http://www.w3.org/2000/svg">
<path d="M84.3097 29.6231C84.2742 29.8969 84.0234 30.0901 83.7496 30.0546L79.2869 29.4761C79.0131 29.4406 78.8198 29.1898 78.8553 28.916C78.8908 28.6421 79.1416 28.4489 79.4155 28.4844L83.3823 28.9987L83.8965 25.0319C83.932 24.758 84.1828 24.5648 84.4567 24.6003C84.7305 24.6358 84.9237 24.8866 84.8882 25.1604L84.3097 29.6231ZM83.4178 29.864C82.2083 28.2942 80.9739 26.822 79.7134 25.4551L80.4486 24.7772C81.731 26.1679 82.9843 27.6629 84.2099 29.2536L83.4178 29.864ZM71.0093 18.048C67.6602 15.946 64.1462 14.5658 60.4478 14.013L60.5956 13.024C64.4472 13.5996 68.0903 15.0353 71.5409 17.201L71.0093 18.048ZM49.1788 14.8257C45.8624 15.7577 42.3978 17.308 38.7752 19.5455L38.2497 18.6947C41.9386 16.4163 45.4884 14.8241 48.9083 13.863L49.1788 14.8257ZM29.5796 26.4395C28.1909 27.6565 26.7815 28.9681 25.351 30.3771L24.6493 29.6647C26.0926 28.2429 27.5162 26.9181 28.9206 25.6874L29.5796 26.4395Z" fill="black"/>
<path d="M0.42 41.8C0.42 40.976 0.604 40.24 0.972 39.592C1.348 38.936 1.856 38.428 2.496 38.068C3.144 37.7 3.868 37.516 4.668 37.516C5.604 37.516 6.424 37.756 7.128 38.236C7.832 38.716 8.324 39.38 8.604 40.228H6.672C6.48 39.828 6.208 39.528 5.856 39.328C5.512 39.128 5.112 39.028 4.656 39.028C4.168 39.028 3.732 39.144 3.348 39.376C2.972 39.6 2.676 39.92 2.46 40.336C2.252 40.752 2.148 41.24 2.148 41.8C2.148 42.352 2.252 42.84 2.46 43.264C2.676 43.68 2.972 44.004 3.348 44.236C3.732 44.46 4.168 44.572 4.656 44.572C5.112 44.572 5.512 44.472 5.856 44.272C6.208 44.064 6.48 43.76 6.672 43.36H8.604C8.324 44.216 7.832 44.884 7.128 45.364C6.432 45.836 5.612 46.072 4.668 46.072C3.868 46.072 3.144 45.892 2.496 45.532C1.856 45.164 1.348 44.656 0.972 44.008C0.604 43.36 0.42 42.624 0.42 41.8ZM12.6789 37.12V46H10.9989V37.12H12.6789ZM16.1508 38.56C15.8548 38.56 15.6068 38.468 15.4068 38.284C15.2148 38.092 15.1188 37.856 15.1188 37.576C15.1188 37.296 15.2148 37.064 15.4068 36.88C15.6068 36.688 15.8548 36.592 16.1508 36.592C16.4468 36.592 16.6908 36.688 16.8828 36.88C17.0828 37.064 17.1828 37.296 17.1828 37.576C17.1828 37.856 17.0828 38.092 16.8828 38.284C16.6908 38.468 16.4468 38.56 16.1508 38.56ZM16.9788 39.352V46H15.2988V39.352H16.9788ZM19.1666 42.664C19.1666 42 19.3026 41.412 19.5746 40.9C19.8546 40.38 20.2306 39.976 20.7026 39.688C21.1746 39.4 21.6946 39.256 22.2626 39.256C22.7346 39.256 23.1506 39.348 23.5106 39.532C23.8786 39.708 24.1746 39.936 24.3986 40.216V39.352H26.0906V49.168H24.3986V45.088C24.1746 45.376 23.8746 45.616 23.4986 45.808C23.1226 46 22.6986 46.096 22.2266 46.096C21.6666 46.096 21.1506 45.952 20.6786 45.664C20.2146 45.368 19.8466 44.96 19.5746 44.44C19.3026 43.92 19.1666 43.328 19.1666 42.664ZM24.3986 42.676C24.3986 42.268 24.3146 41.916 24.1466 41.62C23.9786 41.324 23.7586 41.1 23.4866 40.948C23.2226 40.796 22.9386 40.72 22.6346 40.72C22.3386 40.72 22.0546 40.796 21.7826 40.948C21.5186 41.1 21.3026 41.324 21.1346 41.62C20.9666 41.908 20.8826 42.256 20.8826 42.664C20.8826 43.072 20.9666 43.428 21.1346 43.732C21.3026 44.028 21.5186 44.252 21.7826 44.404C22.0546 44.556 22.3386 44.632 22.6346 44.632C22.9386 44.632 23.2226 44.556 23.4866 44.404C23.7586 44.252 23.9786 44.028 24.1466 43.732C24.3146 43.436 24.3986 43.084 24.3986 42.676ZM34.9674 39.352V46H33.2754V45.16C33.0594 45.448 32.7754 45.676 32.4234 45.844C32.0794 46.004 31.7034 46.084 31.2954 46.084C30.7754 46.084 30.3154 45.976 29.9154 45.76C29.5154 45.536 29.1994 45.212 28.9674 44.788C28.7434 44.356 28.6314 43.844 28.6314 43.252V39.352H30.3114V43.012C30.3114 43.54 30.4434 43.948 30.7074 44.236C30.9714 44.516 31.3314 44.656 31.7874 44.656C32.2514 44.656 32.6154 44.516 32.8794 44.236C33.1434 43.948 33.2754 43.54 33.2754 43.012V39.352H34.9674ZM43.765 42.532C43.765 42.772 43.749 42.988 43.717 43.18H38.857C38.897 43.66 39.065 44.036 39.361 44.308C39.657 44.58 40.021 44.716 40.453 44.716C41.077 44.716 41.521 44.448 41.785 43.912H43.597C43.405 44.552 43.037 45.08 42.493 45.496C41.949 45.904 41.281 46.108 40.489 46.108C39.849 46.108 39.273 45.968 38.761 45.688C38.257 45.4 37.861 44.996 37.573 44.476C37.293 43.956 37.153 43.356 37.153 42.676C37.153 41.988 37.293 41.384 37.573 40.864C37.853 40.344 38.245 39.944 38.749 39.664C39.253 39.384 39.833 39.244 40.489 39.244C41.121 39.244 41.685 39.38 42.181 39.652C42.685 39.924 43.073 40.312 43.345 40.816C43.625 41.312 43.765 41.884 43.765 42.532ZM42.025 42.052C42.017 41.62 41.861 41.276 41.557 41.02C41.253 40.756 40.881 40.624 40.441 40.624C40.025 40.624 39.673 40.752 39.385 41.008C39.105 41.256 38.933 41.604 38.869 42.052H42.025ZM51.9427 37.48L51.7507 43.276H50.3347L50.1307 37.48H51.9427ZM51.0787 46.084C50.7747 46.084 50.5227 45.992 50.3227 45.808C50.1307 45.616 50.0347 45.38 50.0347 45.1C50.0347 44.82 50.1307 44.588 50.3227 44.404C50.5227 44.212 50.7747 44.116 51.0787 44.116C51.3747 44.116 51.6187 44.212 51.8107 44.404C52.0027 44.588 52.0987 44.82 52.0987 45.1C52.0987 45.38 52.0027 45.616 51.8107 45.808C51.6187 45.992 51.3747 46.084 51.0787 46.084Z" fill="black"/>
</svg>
