<svg width="94" height="78" viewBox="0 0 94 78" fill="none" xmlns="http://www.w3.org/2000/svg">
<path d="M36.6882 2.53662C36.944 2.64055 37.0672 2.9322 36.9633 3.18804L35.2696 7.35715C35.1656 7.61298 34.874 7.73613 34.6182 7.63219C34.3623 7.52826 34.2392 7.23661 34.3431 6.98077L35.8486 3.2749L32.1427 1.76941C31.8869 1.66548 31.7637 1.37383 31.8677 1.11799C31.9716 0.862151 32.2633 0.739008 32.5191 0.84294L36.6882 2.53662ZM36.6945 3.46047C34.869 4.23127 33.1314 5.05101 31.489 5.92273L31.0201 5.03944C32.6911 4.15257 34.4556 3.32034 36.3055 2.53923L36.6945 3.46047ZM22.113 12.4587C19.2289 15.1635 17.0009 18.2114 15.5264 21.6479L14.6074 21.2536C16.143 17.6748 18.4574 14.5161 21.4289 11.7293L22.113 12.4587ZM13.4485 32.7535C13.5071 36.1978 14.1259 39.9427 15.3693 44.0149L14.4129 44.307C13.1468 40.1602 12.5091 36.3223 12.4486 32.7705L13.4485 32.7535ZM19.7 54.6607C20.5241 56.3131 21.4344 58.0096 22.4337 59.7511L21.5663 60.2488C20.558 58.4915 19.6385 56.778 18.8051 55.107L19.7 54.6607Z" fill="black"/>
<path d="M32.352 64.624L29.28 73H27.24L24.168 64.624H25.968L28.272 71.284L30.564 64.624H32.352ZM37.2713 73.108C36.6313 73.108 36.0553 72.968 35.5433 72.688C35.0313 72.4 34.6273 71.996 34.3313 71.476C34.0433 70.956 33.8993 70.356 33.8993 69.676C33.8993 68.996 34.0473 68.396 34.3433 67.876C34.6473 67.356 35.0593 66.956 35.5793 66.676C36.0993 66.388 36.6793 66.244 37.3193 66.244C37.9593 66.244 38.5393 66.388 39.0593 66.676C39.5793 66.956 39.9873 67.356 40.2833 67.876C40.5873 68.396 40.7393 68.996 40.7393 69.676C40.7393 70.356 40.5833 70.956 40.2713 71.476C39.9673 71.996 39.5513 72.4 39.0233 72.688C38.5033 72.968 37.9193 73.108 37.2713 73.108ZM37.2713 71.644C37.5753 71.644 37.8593 71.572 38.1233 71.428C38.3953 71.276 38.6113 71.052 38.7713 70.756C38.9313 70.46 39.0113 70.1 39.0113 69.676C39.0113 69.044 38.8433 68.56 38.5073 68.224C38.1793 67.88 37.7753 67.708 37.2953 67.708C36.8153 67.708 36.4113 67.88 36.0833 68.224C35.7633 68.56 35.6033 69.044 35.6033 69.676C35.6033 70.308 35.7593 70.796 36.0713 71.14C36.3913 71.476 36.7913 71.644 37.2713 71.644ZM43.7836 65.56C43.4876 65.56 43.2396 65.468 43.0396 65.284C42.8476 65.092 42.7516 64.856 42.7516 64.576C42.7516 64.296 42.8476 64.064 43.0396 63.88C43.2396 63.688 43.4876 63.592 43.7836 63.592C44.0796 63.592 44.3236 63.688 44.5156 63.88C44.7156 64.064 44.8156 64.296 44.8156 64.576C44.8156 64.856 44.7156 65.092 44.5156 65.284C44.3236 65.468 44.0796 65.56 43.7836 65.56ZM44.6116 66.352V73H42.9316V66.352H44.6116ZM48.9114 67.384C49.1274 67.032 49.4074 66.756 49.7514 66.556C50.1034 66.356 50.5034 66.256 50.9514 66.256V68.02H50.5074C49.9794 68.02 49.5794 68.144 49.3074 68.392C49.0434 68.64 48.9114 69.072 48.9114 69.688V73H47.2314V66.352H48.9114V67.384ZM58.5424 67.312C58.7584 67.008 59.0544 66.756 59.4304 66.556C59.8144 66.348 60.2504 66.244 60.7384 66.244C61.3064 66.244 61.8184 66.384 62.2744 66.664C62.7384 66.944 63.1024 67.344 63.3664 67.864C63.6384 68.376 63.7744 68.972 63.7744 69.652C63.7744 70.332 63.6384 70.936 63.3664 71.464C63.1024 71.984 62.7384 72.388 62.2744 72.676C61.8184 72.964 61.3064 73.108 60.7384 73.108C60.2504 73.108 59.8184 73.008 59.4424 72.808C59.0744 72.608 58.7744 72.356 58.5424 72.052V76.168H56.8624V66.352H58.5424V67.312ZM62.0584 69.652C62.0584 69.252 61.9744 68.908 61.8064 68.62C61.6464 68.324 61.4304 68.1 61.1584 67.948C60.8944 67.796 60.6064 67.72 60.2944 67.72C59.9904 67.72 59.7024 67.8 59.4304 67.96C59.1664 68.112 58.9504 68.336 58.7824 68.632C58.6224 68.928 58.5424 69.276 58.5424 69.676C58.5424 70.076 58.6224 70.424 58.7824 70.72C58.9504 71.016 59.1664 71.244 59.4304 71.404C59.7024 71.556 59.9904 71.632 60.2944 71.632C60.6064 71.632 60.8944 71.552 61.1584 71.392C61.4304 71.232 61.6464 71.004 61.8064 70.708C61.9744 70.412 62.0584 70.06 62.0584 69.652ZM67.6352 64.12V73H65.9552V64.12H67.6352ZM76.531 66.352V73H74.839V72.16C74.623 72.448 74.339 72.676 73.987 72.844C73.643 73.004 73.267 73.084 72.859 73.084C72.339 73.084 71.879 72.976 71.479 72.76C71.079 72.536 70.763 72.212 70.531 71.788C70.307 71.356 70.195 70.844 70.195 70.252V66.352H71.875V70.012C71.875 70.54 72.007 70.948 72.271 71.236C72.535 71.516 72.895 71.656 73.351 71.656C73.815 71.656 74.179 71.516 74.443 71.236C74.707 70.948 74.839 70.54 74.839 70.012V66.352H76.531ZM81.6926 73.108C81.1486 73.108 80.6606 73.012 80.2286 72.82C79.7966 72.62 79.4526 72.352 79.1966 72.016C78.9486 71.68 78.8126 71.308 78.7886 70.9H80.4806C80.5126 71.156 80.6366 71.368 80.8526 71.536C81.0766 71.704 81.3526 71.788 81.6806 71.788C82.0006 71.788 82.2486 71.724 82.4246 71.596C82.6086 71.468 82.7006 71.304 82.7006 71.104C82.7006 70.888 82.5886 70.728 82.3646 70.624C82.1486 70.512 81.8006 70.392 81.3206 70.264C80.8246 70.144 80.4166 70.02 80.0966 69.892C79.7846 69.764 79.5126 69.568 79.2806 69.304C79.0566 69.04 78.9446 68.684 78.9446 68.236C78.9446 67.868 79.0486 67.532 79.2566 67.228C79.4726 66.924 79.7766 66.684 80.1686 66.508C80.5686 66.332 81.0366 66.244 81.5726 66.244C82.3646 66.244 82.9966 66.444 83.4686 66.844C83.9406 67.236 84.2006 67.768 84.2486 68.44H82.6406C82.6166 68.176 82.5046 67.968 82.3046 67.816C82.1126 67.656 81.8526 67.576 81.5246 67.576C81.2206 67.576 80.9846 67.632 80.8166 67.744C80.6566 67.856 80.5766 68.012 80.5766 68.212C80.5766 68.436 80.6886 68.608 80.9126 68.728C81.1366 68.84 81.4846 68.956 81.9566 69.076C82.4366 69.196 82.8326 69.32 83.1446 69.448C83.4566 69.576 83.7246 69.776 83.9486 70.048C84.1806 70.312 84.3006 70.664 84.3086 71.104C84.3086 71.488 84.2006 71.832 83.9846 72.136C83.7766 72.44 83.4726 72.68 83.0726 72.856C82.6806 73.024 82.2206 73.108 81.6926 73.108ZM92.6391 64.48L92.4471 70.276H91.0311L90.8271 64.48H92.6391ZM91.7751 73.084C91.4711 73.084 91.2191 72.992 91.0191 72.808C90.8271 72.616 90.7311 72.38 90.7311 72.1C90.7311 71.82 90.8271 71.588 91.0191 71.404C91.2191 71.212 91.4711 71.116 91.7751 71.116C92.0711 71.116 92.3151 71.212 92.5071 71.404C92.6991 71.588 92.7951 71.82 92.7951 72.1C92.7951 72.38 92.6991 72.616 92.5071 72.808C92.3151 72.992 92.0711 73.084 91.7751 73.084Z" fill="black"/>
</svg>
