<svg width="80" height="53" viewBox="0 0 80 53" fill="none" xmlns="http://www.w3.org/2000/svg">
<path d="M3.10739 12.2988C3.26533 12.0723 3.577 12.0167 3.80351 12.1747L7.49473 14.7486C7.72124 14.9065 7.77683 15.2182 7.61888 15.4447C7.46093 15.6712 7.14927 15.7268 6.92276 15.5688L3.64167 13.2809L1.35377 16.562C1.19583 16.7885 0.884163 16.8441 0.657651 16.6862C0.431139 16.5282 0.375557 16.2166 0.533502 15.99L3.10739 12.2988ZM4.00976 12.497C4.35767 14.4478 4.77277 16.3237 5.25962 18.1183L4.2945 18.3801C3.7992 16.5544 3.37786 14.6495 3.02529 12.6726L4.00976 12.497ZM9.5598 28.7077C11.5597 32.1186 14.0393 34.9656 17.0646 37.1636L16.4768 37.9726C13.3262 35.6836 10.7577 32.7278 8.69715 29.2135L9.5598 28.7077ZM27.4354 41.6465C30.8074 42.3512 34.5964 42.576 38.8429 42.2642L38.9161 43.2615C34.592 43.5791 30.7081 43.3521 27.2309 42.6254L27.4354 41.6465ZM50.1828 40.3955C51.9766 39.9573 53.8324 39.4448 55.7518 38.8555L56.0453 39.8114C54.1086 40.406 52.234 40.9238 50.4201 41.3669L50.1828 40.3955Z" fill="black"/>
<path d="M59.66 26.144C59.468 25.792 59.204 25.524 58.868 25.34C58.532 25.156 58.14 25.064 57.692 25.064C57.196 25.064 56.756 25.176 56.372 25.4C55.988 25.624 55.688 25.944 55.472 26.36C55.256 26.776 55.148 27.256 55.148 27.8C55.148 28.36 55.256 28.848 55.472 29.264C55.696 29.68 56.004 30 56.396 30.224C56.788 30.448 57.244 30.56 57.764 30.56C58.404 30.56 58.928 30.392 59.336 30.056C59.744 29.712 60.012 29.236 60.14 28.628H57.26V27.344H61.796V28.808C61.684 29.392 61.444 29.932 61.076 30.428C60.708 30.924 60.232 31.324 59.648 31.628C59.072 31.924 58.424 32.072 57.704 32.072C56.896 32.072 56.164 31.892 55.508 31.532C54.86 31.164 54.348 30.656 53.972 30.008C53.604 29.36 53.42 28.624 53.42 27.8C53.42 26.976 53.604 26.24 53.972 25.592C54.348 24.936 54.86 24.428 55.508 24.068C56.164 23.7 56.892 23.516 57.692 23.516C58.636 23.516 59.456 23.748 60.152 24.212C60.848 24.668 61.328 25.312 61.592 26.144H59.66ZM66.9509 32.108C66.3109 32.108 65.7349 31.968 65.2229 31.688C64.7109 31.4 64.3069 30.996 64.0109 30.476C63.7229 29.956 63.5789 29.356 63.5789 28.676C63.5789 27.996 63.7269 27.396 64.0229 26.876C64.3269 26.356 64.7389 25.956 65.2589 25.676C65.7789 25.388 66.3589 25.244 66.9989 25.244C67.6389 25.244 68.2189 25.388 68.7389 25.676C69.2589 25.956 69.6669 26.356 69.9629 26.876C70.2669 27.396 70.4189 27.996 70.4189 28.676C70.4189 29.356 70.2629 29.956 69.9509 30.476C69.6469 30.996 69.2309 31.4 68.7029 31.688C68.1829 31.968 67.5989 32.108 66.9509 32.108ZM66.9509 30.644C67.2549 30.644 67.5389 30.572 67.8029 30.428C68.0749 30.276 68.2909 30.052 68.4509 29.756C68.6109 29.46 68.6909 29.1 68.6909 28.676C68.6909 28.044 68.5229 27.56 68.1869 27.224C67.8589 26.88 67.4549 26.708 66.9749 26.708C66.4949 26.708 66.0909 26.88 65.7629 27.224C65.4429 27.56 65.2829 28.044 65.2829 28.676C65.2829 29.308 65.4389 29.796 65.7509 30.14C66.0709 30.476 66.4709 30.644 66.9509 30.644ZM78.6027 23.48L78.4107 29.276H76.9947L76.7907 23.48H78.6027ZM77.7387 32.084C77.4347 32.084 77.1827 31.992 76.9827 31.808C76.7907 31.616 76.6947 31.38 76.6947 31.1C76.6947 30.82 76.7907 30.588 76.9827 30.404C77.1827 30.212 77.4347 30.116 77.7387 30.116C78.0347 30.116 78.2787 30.212 78.4707 30.404C78.6627 30.588 78.7587 30.82 78.7587 31.1C78.7587 31.38 78.6627 31.616 78.4707 31.808C78.2787 31.992 78.0347 32.084 77.7387 32.084Z" fill="black"/>
</svg>
