<svg width="90" height="56" viewBox="0 0 90 56" fill="none" xmlns="http://www.w3.org/2000/svg">
<path d="M87.4247 37.3193C87.3049 37.5681 87.006 37.6726 86.7573 37.5528L82.703 35.6C82.4542 35.4802 82.3497 35.1814 82.4695 34.9326C82.5894 34.6838 82.8882 34.5793 83.137 34.6991L86.7407 36.4349L88.4765 32.8312C88.5964 32.5824 88.8952 32.4778 89.144 32.5977C89.3928 32.7175 89.4973 33.0163 89.3775 33.2651L87.4247 37.3193ZM86.5023 37.2675C85.8479 35.397 85.1392 33.6112 84.3726 31.9172L85.2837 31.5049C86.0636 33.2284 86.7831 35.0418 87.4462 36.9372L86.5023 37.2675ZM78.4399 22.1484C75.9219 19.0997 73.0204 16.6843 69.6835 14.9964L70.1349 14.1041C73.6099 15.8619 76.6166 18.3705 79.2109 21.5116L78.4399 22.1484ZM58.7308 12.2235C55.2896 12.0652 51.5131 12.447 47.3707 13.4316L47.1395 12.4587C51.3577 11.4561 55.2282 11.0613 58.7767 11.2246L58.7308 12.2235ZM36.4735 17.0835C34.7724 17.802 33.022 18.6037 31.221 19.4913L30.7789 18.5943C32.5962 17.6987 34.3643 16.8888 36.0844 16.1623L36.4735 17.0835Z" fill="black"/>
<path d="M6.936 26.216C6.936 26.664 6.828 27.084 6.612 27.476C6.404 27.868 6.072 28.184 5.616 28.424C5.168 28.664 4.6 28.784 3.912 28.784H2.508V32H0.828V23.624H3.912C4.56 23.624 5.112 23.736 5.568 23.96C6.024 24.184 6.364 24.492 6.588 24.884C6.82 25.276 6.936 25.72 6.936 26.216ZM3.84 27.428C4.304 27.428 4.648 27.324 4.872 27.116C5.096 26.9 5.208 26.6 5.208 26.216C5.208 25.4 4.752 24.992 3.84 24.992H2.508V27.428H3.84ZM10.7688 23.12V32H9.08878V23.12H10.7688ZM19.6646 25.352V32H17.9726V31.16C17.7566 31.448 17.4726 31.676 17.1206 31.844C16.7766 32.004 16.4006 32.084 15.9926 32.084C15.4726 32.084 15.0126 31.976 14.6126 31.76C14.2126 31.536 13.8966 31.212 13.6646 30.788C13.4406 30.356 13.3286 29.844 13.3286 29.252V25.352H15.0086V29.012C15.0086 29.54 15.1406 29.948 15.4046 30.236C15.6686 30.516 16.0286 30.656 16.4846 30.656C16.9486 30.656 17.3126 30.516 17.5766 30.236C17.8406 29.948 17.9726 29.54 17.9726 29.012V25.352H19.6646ZM24.8262 32.108C24.2822 32.108 23.7942 32.012 23.3622 31.82C22.9302 31.62 22.5862 31.352 22.3302 31.016C22.0822 30.68 21.9462 30.308 21.9222 29.9H23.6142C23.6462 30.156 23.7702 30.368 23.9862 30.536C24.2102 30.704 24.4862 30.788 24.8142 30.788C25.1342 30.788 25.3822 30.724 25.5582 30.596C25.7422 30.468 25.8342 30.304 25.8342 30.104C25.8342 29.888 25.7222 29.728 25.4982 29.624C25.2822 29.512 24.9342 29.392 24.4542 29.264C23.9582 29.144 23.5502 29.02 23.2302 28.892C22.9182 28.764 22.6462 28.568 22.4142 28.304C22.1902 28.04 22.0782 27.684 22.0782 27.236C22.0782 26.868 22.1822 26.532 22.3902 26.228C22.6062 25.924 22.9102 25.684 23.3022 25.508C23.7022 25.332 24.1702 25.244 24.7062 25.244C25.4982 25.244 26.1302 25.444 26.6022 25.844C27.0742 26.236 27.3342 26.768 27.3822 27.44H25.7742C25.7502 27.176 25.6382 26.968 25.4382 26.816C25.2462 26.656 24.9862 26.576 24.6582 26.576C24.3542 26.576 24.1182 26.632 23.9502 26.744C23.7902 26.856 23.7102 27.012 23.7102 27.212C23.7102 27.436 23.8222 27.608 24.0462 27.728C24.2702 27.84 24.6182 27.956 25.0902 28.076C25.5702 28.196 25.9662 28.32 26.2782 28.448C26.5902 28.576 26.8582 28.776 27.0822 29.048C27.3142 29.312 27.4342 29.664 27.4422 30.104C27.4422 30.488 27.3342 30.832 27.1182 31.136C26.9102 31.44 26.6062 31.68 26.2062 31.856C25.8142 32.024 25.3542 32.108 24.8262 32.108ZM35.7727 23.48L35.5807 29.276H34.1647L33.9607 23.48H35.7727ZM34.9087 32.084C34.6047 32.084 34.3527 31.992 34.1527 31.808C33.9607 31.616 33.8647 31.38 33.8647 31.1C33.8647 30.82 33.9607 30.588 34.1527 30.404C34.3527 30.212 34.6047 30.116 34.9087 30.116C35.2047 30.116 35.4487 30.212 35.6407 30.404C35.8327 30.588 35.9287 30.82 35.9287 31.1C35.9287 31.38 35.8327 31.616 35.6407 31.808C35.4487 31.992 35.2047 32.084 34.9087 32.084Z" fill="black"/>
</svg>
