<svg width="90" height="56" viewBox="0 0 90 56" fill="none" xmlns="http://www.w3.org/2000/svg">
<path d="M87.4247 37.3193C87.3049 37.5681 87.006 37.6726 86.7573 37.5528L82.703 35.6C82.4542 35.4802 82.3497 35.1814 82.4695 34.9326C82.5894 34.6838 82.8882 34.5793 83.137 34.6991L86.7407 36.4349L88.4765 32.8312C88.5964 32.5824 88.8952 32.4778 89.144 32.5977C89.3928 32.7175 89.4973 33.0163 89.3775 33.2651L87.4247 37.3193ZM86.5023 37.2675C85.8479 35.397 85.1392 33.6112 84.3726 31.9172L85.2837 31.5049C86.0636 33.2284 86.7831 35.0418 87.4462 36.9372L86.5023 37.2675ZM78.4399 22.1484C75.9219 19.0997 73.0204 16.6843 69.6835 14.9964L70.1349 14.1041C73.6099 15.8619 76.6166 18.3705 79.2109 21.5116L78.4399 22.1484ZM58.7308 12.2235C55.2896 12.0652 51.5131 12.447 47.3707 13.4316L47.1395 12.4587C51.3577 11.4561 55.2282 11.0613 58.7767 11.2246L58.7308 12.2235ZM36.4735 17.0835C34.7724 17.802 33.022 18.6037 31.221 19.4913L30.7789 18.5943C32.5962 17.6987 34.3643 16.8888 36.0844 16.1623L36.4735 17.0835Z" fill="black"/>
<path d="M9.96 23.624V32H8.28V26.552L6.036 32H4.764L2.508 26.552V32H0.828V23.624H2.736L5.4 29.852L8.064 23.624H9.96ZM15.533 32.108C14.893 32.108 14.317 31.968 13.805 31.688C13.293 31.4 12.889 30.996 12.593 30.476C12.305 29.956 12.161 29.356 12.161 28.676C12.161 27.996 12.309 27.396 12.605 26.876C12.909 26.356 13.321 25.956 13.841 25.676C14.361 25.388 14.941 25.244 15.581 25.244C16.221 25.244 16.801 25.388 17.321 25.676C17.841 25.956 18.249 26.356 18.545 26.876C18.849 27.396 19.001 27.996 19.001 28.676C19.001 29.356 18.845 29.956 18.533 30.476C18.229 30.996 17.813 31.4 17.285 31.688C16.765 31.968 16.181 32.108 15.533 32.108ZM15.533 30.644C15.837 30.644 16.121 30.572 16.385 30.428C16.657 30.276 16.873 30.052 17.033 29.756C17.193 29.46 17.273 29.1 17.273 28.676C17.273 28.044 17.105 27.56 16.769 27.224C16.441 26.88 16.037 26.708 15.557 26.708C15.077 26.708 14.673 26.88 14.345 27.224C14.025 27.56 13.865 28.044 13.865 28.676C13.865 29.308 14.021 29.796 14.333 30.14C14.653 30.476 15.053 30.644 15.533 30.644ZM22.8733 26.384C23.0893 26.032 23.3693 25.756 23.7133 25.556C24.0653 25.356 24.4653 25.256 24.9133 25.256V27.02H24.4693C23.9413 27.02 23.5413 27.144 23.2693 27.392C23.0053 27.64 22.8733 28.072 22.8733 28.688V32H21.1933V25.352H22.8733V26.384ZM33.1849 28.532C33.1849 28.772 33.1689 28.988 33.1369 29.18H28.2769C28.3169 29.66 28.4849 30.036 28.7809 30.308C29.0769 30.58 29.4409 30.716 29.8729 30.716C30.4969 30.716 30.9409 30.448 31.2049 29.912H33.0169C32.8249 30.552 32.4569 31.08 31.9129 31.496C31.3689 31.904 30.7009 32.108 29.9089 32.108C29.2689 32.108 28.6929 31.968 28.1809 31.688C27.6769 31.4 27.2809 30.996 26.9929 30.476C26.7129 29.956 26.5729 29.356 26.5729 28.676C26.5729 27.988 26.7129 27.384 26.9929 26.864C27.2729 26.344 27.6649 25.944 28.1689 25.664C28.6729 25.384 29.2529 25.244 29.9089 25.244C30.5409 25.244 31.1049 25.38 31.6009 25.652C32.1049 25.924 32.4929 26.312 32.7649 26.816C33.0449 27.312 33.1849 27.884 33.1849 28.532ZM31.4449 28.052C31.4369 27.62 31.2809 27.276 30.9769 27.02C30.6729 26.756 30.3009 26.624 29.8609 26.624C29.4449 26.624 29.0929 26.752 28.8049 27.008C28.5249 27.256 28.3529 27.604 28.2889 28.052H31.4449ZM41.3625 23.48L41.1705 29.276H39.7545L39.5505 23.48H41.3625ZM40.4985 32.084C40.1945 32.084 39.9425 31.992 39.7425 31.808C39.5505 31.616 39.4545 31.38 39.4545 31.1C39.4545 30.82 39.5505 30.588 39.7425 30.404C39.9425 30.212 40.1945 30.116 40.4985 30.116C40.7945 30.116 41.0385 30.212 41.2305 30.404C41.4225 30.588 41.5185 30.82 41.5185 31.1C41.5185 31.38 41.4225 31.616 41.2305 31.808C41.0385 31.992 40.7945 32.084 40.4985 32.084Z" fill="black"/>
</svg>
