<svg width="98" height="78" viewBox="0 0 98 78" fill="none" xmlns="http://www.w3.org/2000/svg">
<path d="M36.6882 2.53662C36.944 2.64055 37.0672 2.9322 36.9633 3.18804L35.2696 7.35715C35.1656 7.61298 34.874 7.73613 34.6182 7.63219C34.3623 7.52826 34.2392 7.23661 34.3431 6.98077L35.8486 3.2749L32.1427 1.76941C31.8869 1.66548 31.7637 1.37383 31.8677 1.11799C31.9716 0.862151 32.2633 0.739008 32.5191 0.84294L36.6882 2.53662ZM36.6945 3.46047C34.869 4.23127 33.1314 5.05101 31.489 5.92273L31.0201 5.03944C32.6911 4.15257 34.4556 3.32034 36.3055 2.53923L36.6945 3.46047ZM22.113 12.4587C19.2289 15.1635 17.0009 18.2114 15.5264 21.6479L14.6074 21.2536C16.143 17.6748 18.4574 14.5161 21.4289 11.7293L22.113 12.4587ZM13.4485 32.7535C13.5071 36.1978 14.1259 39.9427 15.3693 44.0149L14.4129 44.307C13.1468 40.1602 12.5091 36.3223 12.4486 32.7705L13.4485 32.7535ZM19.7 54.6607C20.5241 56.3131 21.4344 58.0096 22.4337 59.7511L21.5663 60.2488C20.558 58.4915 19.6385 56.778 18.8051 55.107L19.7 54.6607Z" fill="black"/>
<path d="M27.72 73.084C27.136 73.084 26.608 72.984 26.136 72.784C25.672 72.584 25.304 72.296 25.032 71.92C24.76 71.544 24.62 71.1 24.612 70.588H26.412C26.436 70.932 26.556 71.204 26.772 71.404C26.996 71.604 27.3 71.704 27.684 71.704C28.076 71.704 28.384 71.612 28.608 71.428C28.832 71.236 28.944 70.988 28.944 70.684C28.944 70.436 28.868 70.232 28.716 70.072C28.564 69.912 28.372 69.788 28.14 69.7C27.916 69.604 27.604 69.5 27.204 69.388C26.66 69.228 26.216 69.072 25.872 68.92C25.536 68.76 25.244 68.524 24.996 68.212C24.756 67.892 24.636 67.468 24.636 66.94C24.636 66.444 24.76 66.012 25.008 65.644C25.256 65.276 25.604 64.996 26.052 64.804C26.5 64.604 27.012 64.504 27.588 64.504C28.452 64.504 29.152 64.716 29.688 65.14C30.232 65.556 30.532 66.14 30.588 66.892H28.74C28.724 66.604 28.6 66.368 28.368 66.184C28.144 65.992 27.844 65.896 27.468 65.896C27.14 65.896 26.876 65.98 26.676 66.148C26.484 66.316 26.388 66.56 26.388 66.88C26.388 67.104 26.46 67.292 26.604 67.444C26.756 67.588 26.94 67.708 27.156 67.804C27.38 67.892 27.692 67.996 28.092 68.116C28.636 68.276 29.08 68.436 29.424 68.596C29.768 68.756 30.064 68.996 30.312 69.316C30.56 69.636 30.684 70.056 30.684 70.576C30.684 71.024 30.568 71.44 30.336 71.824C30.104 72.208 29.764 72.516 29.316 72.748C28.868 72.972 28.336 73.084 27.72 73.084ZM39.2805 69.532C39.2805 69.772 39.2645 69.988 39.2325 70.18H34.3725C34.4125 70.66 34.5805 71.036 34.8765 71.308C35.1725 71.58 35.5365 71.716 35.9685 71.716C36.5925 71.716 37.0365 71.448 37.3005 70.912H39.1125C38.9205 71.552 38.5525 72.08 38.0085 72.496C37.4645 72.904 36.7965 73.108 36.0045 73.108C35.3645 73.108 34.7885 72.968 34.2765 72.688C33.7725 72.4 33.3765 71.996 33.0885 71.476C32.8085 70.956 32.6685 70.356 32.6685 69.676C32.6685 68.988 32.8085 68.384 33.0885 67.864C33.3685 67.344 33.7605 66.944 34.2645 66.664C34.7685 66.384 35.3485 66.244 36.0045 66.244C36.6365 66.244 37.2005 66.38 37.6965 66.652C38.2005 66.924 38.5885 67.312 38.8605 67.816C39.1405 68.312 39.2805 68.884 39.2805 69.532ZM37.5405 69.052C37.5325 68.62 37.3765 68.276 37.0725 68.02C36.7685 67.756 36.3965 67.624 35.9565 67.624C35.5405 67.624 35.1885 67.752 34.9005 68.008C34.6205 68.256 34.4485 68.604 34.3845 69.052H37.5405ZM47.6468 69.532C47.6468 69.772 47.6308 69.988 47.5988 70.18H42.7388C42.7788 70.66 42.9468 71.036 43.2428 71.308C43.5388 71.58 43.9028 71.716 44.3348 71.716C44.9588 71.716 45.4028 71.448 45.6668 70.912H47.4788C47.2868 71.552 46.9188 72.08 46.3748 72.496C45.8308 72.904 45.1628 73.108 44.3708 73.108C43.7308 73.108 43.1548 72.968 42.6428 72.688C42.1388 72.4 41.7428 71.996 41.4548 71.476C41.1748 70.956 41.0348 70.356 41.0348 69.676C41.0348 68.988 41.1748 68.384 41.4548 67.864C41.7348 67.344 42.1268 66.944 42.6308 66.664C43.1348 66.384 43.7148 66.244 44.3708 66.244C45.0028 66.244 45.5668 66.38 46.0628 66.652C46.5668 66.924 46.9548 67.312 47.2268 67.816C47.5068 68.312 47.6468 68.884 47.6468 69.532ZM45.9068 69.052C45.8988 68.62 45.7428 68.276 45.4388 68.02C45.1348 67.756 44.7628 67.624 44.3228 67.624C43.9068 67.624 43.5548 67.752 43.2668 68.008C42.9868 68.256 42.8148 68.604 42.7508 69.052H45.9068ZM61.9084 66.256C62.7244 66.256 63.3804 66.508 63.8764 67.012C64.3804 67.508 64.6324 68.204 64.6324 69.1V73H62.9524V69.328C62.9524 68.808 62.8204 68.412 62.5564 68.14C62.2924 67.86 61.9324 67.72 61.4764 67.72C61.0204 67.72 60.6564 67.86 60.3844 68.14C60.1204 68.412 59.9884 68.808 59.9884 69.328V73H58.3084V69.328C58.3084 68.808 58.1764 68.412 57.9124 68.14C57.6484 67.86 57.2884 67.72 56.8324 67.72C56.3684 67.72 56.0004 67.86 55.7284 68.14C55.4644 68.412 55.3324 68.808 55.3324 69.328V73H53.6524V66.352H55.3324V67.156C55.5484 66.876 55.8244 66.656 56.1604 66.496C56.5044 66.336 56.8804 66.256 57.2884 66.256C57.8084 66.256 58.2724 66.368 58.6804 66.592C59.0884 66.808 59.4044 67.12 59.6284 67.528C59.8444 67.144 60.1564 66.836 60.5644 66.604C60.9804 66.372 61.4284 66.256 61.9084 66.256ZM70.1386 73.108C69.4986 73.108 68.9226 72.968 68.4106 72.688C67.8986 72.4 67.4946 71.996 67.1986 71.476C66.9106 70.956 66.7666 70.356 66.7666 69.676C66.7666 68.996 66.9146 68.396 67.2106 67.876C67.5146 67.356 67.9266 66.956 68.4466 66.676C68.9666 66.388 69.5466 66.244 70.1866 66.244C70.8266 66.244 71.4066 66.388 71.9266 66.676C72.4466 66.956 72.8546 67.356 73.1506 67.876C73.4546 68.396 73.6066 68.996 73.6066 69.676C73.6066 70.356 73.4506 70.956 73.1386 71.476C72.8346 71.996 72.4186 72.4 71.8906 72.688C71.3706 72.968 70.7866 73.108 70.1386 73.108ZM70.1386 71.644C70.4426 71.644 70.7266 71.572 70.9906 71.428C71.2626 71.276 71.4786 71.052 71.6386 70.756C71.7986 70.46 71.8786 70.1 71.8786 69.676C71.8786 69.044 71.7106 68.56 71.3746 68.224C71.0466 67.88 70.6426 67.708 70.1626 67.708C69.6826 67.708 69.2786 67.88 68.9506 68.224C68.6306 68.56 68.4706 69.044 68.4706 69.676C68.4706 70.308 68.6266 70.796 68.9386 71.14C69.2586 71.476 69.6586 71.644 70.1386 71.644ZM77.4789 67.384C77.6949 67.032 77.9749 66.756 78.3189 66.556C78.6709 66.356 79.0709 66.256 79.5189 66.256V68.02H79.0749C78.5469 68.02 78.1469 68.144 77.8749 68.392C77.6109 68.64 77.4789 69.072 77.4789 69.688V73H75.7989V66.352H77.4789V67.384ZM87.7905 69.532C87.7905 69.772 87.7745 69.988 87.7425 70.18H82.8825C82.9225 70.66 83.0905 71.036 83.3865 71.308C83.6825 71.58 84.0465 71.716 84.4785 71.716C85.1025 71.716 85.5465 71.448 85.8105 70.912H87.6225C87.4305 71.552 87.0625 72.08 86.5185 72.496C85.9745 72.904 85.3065 73.108 84.5145 73.108C83.8745 73.108 83.2985 72.968 82.7865 72.688C82.2825 72.4 81.8865 71.996 81.5985 71.476C81.3185 70.956 81.1785 70.356 81.1785 69.676C81.1785 68.988 81.3185 68.384 81.5985 67.864C81.8785 67.344 82.2705 66.944 82.7745 66.664C83.2785 66.384 83.8585 66.244 84.5145 66.244C85.1465 66.244 85.7105 66.38 86.2065 66.652C86.7105 66.924 87.0985 67.312 87.3705 67.816C87.6505 68.312 87.7905 68.884 87.7905 69.532ZM86.0505 69.052C86.0425 68.62 85.8865 68.276 85.5825 68.02C85.2785 67.756 84.9065 67.624 84.4665 67.624C84.0505 67.624 83.6985 67.752 83.4105 68.008C83.1305 68.256 82.9585 68.604 82.8945 69.052H86.0505ZM95.9681 64.48L95.7761 70.276H94.3601L94.1561 64.48H95.9681ZM95.1041 73.084C94.8001 73.084 94.5481 72.992 94.3481 72.808C94.1561 72.616 94.0601 72.38 94.0601 72.1C94.0601 71.82 94.1561 71.588 94.3481 71.404C94.5481 71.212 94.8001 71.116 95.1041 71.116C95.4001 71.116 95.6441 71.212 95.8361 71.404C96.0281 71.588 96.1241 71.82 96.1241 72.1C96.1241 72.38 96.0281 72.616 95.8361 72.808C95.6441 72.992 95.4001 73.084 95.1041 73.084Z" fill="black"/>
</svg>
