<svg width="85" height="60" viewBox="0 0 85 60" fill="none" xmlns="http://www.w3.org/2000/svg">
<path d="M84.3096 29.6231C84.2741 29.8969 84.0233 30.0901 83.7495 30.0546L79.2868 29.4761C79.0129 29.4406 78.8197 29.1898 78.8552 28.916C78.8907 28.6421 79.1415 28.4489 79.4154 28.4844L83.3822 28.9987L83.8964 25.0319C83.9319 24.758 84.1827 24.5648 84.4565 24.6003C84.7304 24.6358 84.9236 24.8866 84.8881 25.1604L84.3096 29.6231ZM83.4177 29.864C82.2082 28.2942 80.9738 26.822 79.7133 25.4551L80.4485 24.7772C81.7309 26.1679 82.9842 27.6629 84.2098 29.2536L83.4177 29.864ZM71.0091 18.048C67.6601 15.946 64.1461 14.5658 60.4477 14.013L60.5955 13.024C64.447 13.5996 68.0902 15.0353 71.5408 17.201L71.0091 18.048ZM49.1787 14.8257C45.8623 15.7577 42.3977 17.308 38.7751 19.5455L38.2496 18.6947C41.9384 16.4163 45.4883 14.8241 48.9081 13.863L49.1787 14.8257ZM29.5795 26.4395C28.1908 27.6565 26.7814 28.9681 25.3509 30.3771L24.6492 29.6647C26.0925 28.2429 27.5161 26.9181 28.9204 25.6874L29.5795 26.4395Z" fill="black"/>
<path d="M0.419939 41.8C0.419939 40.976 0.603939 40.24 0.971939 39.592C1.34794 38.936 1.85594 38.428 2.49594 38.068C3.14394 37.7 3.86794 37.516 4.66794 37.516C5.60394 37.516 6.42394 37.756 7.12794 38.236C7.83194 38.716 8.32394 39.38 8.60394 40.228H6.67194C6.47994 39.828 6.20794 39.528 5.85594 39.328C5.51194 39.128 5.11194 39.028 4.65594 39.028C4.16794 39.028 3.73194 39.144 3.34794 39.376C2.97194 39.6 2.67594 39.92 2.45994 40.336C2.25194 40.752 2.14794 41.24 2.14794 41.8C2.14794 42.352 2.25194 42.84 2.45994 43.264C2.67594 43.68 2.97194 44.004 3.34794 44.236C3.73194 44.46 4.16794 44.572 4.65594 44.572C5.11194 44.572 5.51194 44.472 5.85594 44.272C6.20794 44.064 6.47994 43.76 6.67194 43.36H8.60394C8.32394 44.216 7.83194 44.884 7.12794 45.364C6.43194 45.836 5.61194 46.072 4.66794 46.072C3.86794 46.072 3.14394 45.892 2.49594 45.532C1.85594 45.164 1.34794 44.656 0.971939 44.008C0.603939 43.36 0.419939 42.624 0.419939 41.8ZM12.6789 37.12V46H10.9989V37.12H12.6789ZM16.1507 38.56C15.8547 38.56 15.6067 38.468 15.4067 38.284C15.2147 38.092 15.1187 37.856 15.1187 37.576C15.1187 37.296 15.2147 37.064 15.4067 36.88C15.6067 36.688 15.8547 36.592 16.1507 36.592C16.4467 36.592 16.6907 36.688 16.8827 36.88C17.0827 37.064 17.1827 37.296 17.1827 37.576C17.1827 37.856 17.0827 38.092 16.8827 38.284C16.6907 38.468 16.4467 38.56 16.1507 38.56ZM16.9787 39.352V46H15.2987V39.352H16.9787ZM19.1666 42.676C19.1666 41.988 19.3066 41.388 19.5866 40.876C19.8666 40.356 20.2546 39.956 20.7506 39.676C21.2466 39.388 21.8146 39.244 22.4546 39.244C23.2786 39.244 23.9586 39.452 24.4946 39.868C25.0386 40.276 25.4026 40.852 25.5866 41.596H23.7746C23.6786 41.308 23.5146 41.084 23.2826 40.924C23.0586 40.756 22.7786 40.672 22.4426 40.672C21.9626 40.672 21.5826 40.848 21.3026 41.2C21.0226 41.544 20.8826 42.036 20.8826 42.676C20.8826 43.308 21.0226 43.8 21.3026 44.152C21.5826 44.496 21.9626 44.668 22.4426 44.668C23.1226 44.668 23.5666 44.364 23.7746 43.756H25.5866C25.4026 44.476 25.0386 45.048 24.4946 45.472C23.9506 45.896 23.2706 46.108 22.4546 46.108C21.8146 46.108 21.2466 45.968 20.7506 45.688C20.2546 45.4 19.8666 45 19.5866 44.488C19.3066 43.968 19.1666 43.364 19.1666 42.676ZM31.7133 46L29.4573 43.168V46H27.7773V37.12H29.4573V42.172L31.6893 39.352H33.8733L30.9453 42.688L33.8973 46H31.7133ZM41.7365 37.48L41.5445 43.276H40.1285L39.9245 37.48H41.7365ZM40.8725 46.084C40.5685 46.084 40.3165 45.992 40.1165 45.808C39.9245 45.616 39.8285 45.38 39.8285 45.1C39.8285 44.82 39.9245 44.588 40.1165 44.404C40.3165 44.212 40.5685 44.116 40.8725 44.116C41.1685 44.116 41.4125 44.212 41.6045 44.404C41.7965 44.588 41.8925 44.82 41.8925 45.1C41.8925 45.38 41.7965 45.616 41.6045 45.808C41.4125 45.992 41.1685 46.084 40.8725 46.084Z" fill="black"/>
</svg>
