<svg width="107" height="49" viewBox="0 0 107 49" fill="none" xmlns="http://www.w3.org/2000/svg">
<path d="M2.56003 48.2375C2.69122 48.4805 2.99455 48.5712 3.23754 48.44L7.19727 46.3021C7.44026 46.1709 7.53089 45.8676 7.3997 45.6246C7.26851 45.3816 6.96518 45.291 6.72219 45.4221L3.20243 47.3225L1.30209 43.8027C1.1709 43.5597 0.867568 43.4691 0.624579 43.6003C0.38159 43.7315 0.29096 44.0348 0.422151 44.2778L2.56003 48.2375ZM3.47907 48.1431C3.94202 46.5937 4.42316 45.0285 4.93828 43.4602L3.98822 43.1482C3.46927 44.7281 2.9853 46.3026 2.52093 47.8569L3.47907 48.1431ZM8.45816 34.3413C9.81061 31.4152 11.3965 28.5778 13.3236 25.9213L12.5141 25.3341C10.5416 28.0533 8.92428 30.9494 7.55043 33.9218L8.45816 34.3413ZM19.9281 18.8391C22.2847 16.8867 24.9877 15.1394 28.1125 13.662L27.6851 12.7579C24.4852 14.2709 21.7113 16.0631 19.2902 18.0691L19.9281 18.8391ZM37.2968 10.4564C38.8159 10.0852 40.4087 9.76293 42.0796 9.49363L41.9204 8.50637C40.2244 8.77972 38.6055 9.10715 37.0594 9.485L37.2968 10.4564Z" fill="black"/>
<path d="M53.5079 4.624V13H51.8279V4.624H53.5079ZM58.0838 7.732V10.948C58.0838 11.172 58.1358 11.336 58.2398 11.44C58.3518 11.536 58.5358 11.584 58.7918 11.584H59.5718V13H58.5158C57.0998 13 56.3918 12.312 56.3918 10.936V7.732H55.5998V6.352H56.3918V4.708H58.0838V6.352H59.5718V7.732H58.0838ZM62.0761 4.624H63.8401L62.5441 7.648H61.3921L62.0761 4.624ZM68.5488 13.108C68.0048 13.108 67.5168 13.012 67.0848 12.82C66.6528 12.62 66.3088 12.352 66.0528 12.016C65.8048 11.68 65.6688 11.308 65.6448 10.9H67.3368C67.3688 11.156 67.4928 11.368 67.7088 11.536C67.9328 11.704 68.2088 11.788 68.5368 11.788C68.8568 11.788 69.1048 11.724 69.2808 11.596C69.4648 11.468 69.5568 11.304 69.5568 11.104C69.5568 10.888 69.4448 10.728 69.2208 10.624C69.0048 10.512 68.6568 10.392 68.1768 10.264C67.6808 10.144 67.2728 10.02 66.9528 9.892C66.6408 9.764 66.3688 9.568 66.1368 9.304C65.9128 9.04 65.8008 8.684 65.8008 8.236C65.8008 7.868 65.9048 7.532 66.1128 7.228C66.3288 6.924 66.6328 6.684 67.0248 6.508C67.4248 6.332 67.8928 6.244 68.4288 6.244C69.2208 6.244 69.8528 6.444 70.3248 6.844C70.7968 7.236 71.0568 7.768 71.1048 8.44H69.4968C69.4728 8.176 69.3608 7.968 69.1608 7.816C68.9688 7.656 68.7088 7.576 68.3808 7.576C68.0768 7.576 67.8408 7.632 67.6728 7.744C67.5128 7.856 67.4328 8.012 67.4328 8.212C67.4328 8.436 67.5448 8.608 67.7688 8.728C67.9928 8.84 68.3408 8.956 68.8128 9.076C69.2928 9.196 69.6888 9.32 70.0008 9.448C70.3128 9.576 70.5808 9.776 70.8048 10.048C71.0368 10.312 71.1568 10.664 71.1648 11.104C71.1648 11.488 71.0568 11.832 70.8408 12.136C70.6328 12.44 70.3288 12.68 69.9288 12.856C69.5368 13.024 69.0768 13.108 68.5488 13.108ZM85.5793 6.256C86.3953 6.256 87.0513 6.508 87.5473 7.012C88.0513 7.508 88.3033 8.204 88.3033 9.1V13H86.6233V9.328C86.6233 8.808 86.4913 8.412 86.2273 8.14C85.9633 7.86 85.6033 7.72 85.1473 7.72C84.6913 7.72 84.3273 7.86 84.0553 8.14C83.7913 8.412 83.6593 8.808 83.6593 9.328V13H81.9793V9.328C81.9793 8.808 81.8473 8.412 81.5833 8.14C81.3193 7.86 80.9593 7.72 80.5033 7.72C80.0393 7.72 79.6713 7.86 79.3993 8.14C79.1353 8.412 79.0033 8.808 79.0033 9.328V13H77.3233V6.352H79.0033V7.156C79.2193 6.876 79.4953 6.656 79.8313 6.496C80.1753 6.336 80.5513 6.256 80.9593 6.256C81.4793 6.256 81.9433 6.368 82.3513 6.592C82.7593 6.808 83.0753 7.12 83.2993 7.528C83.5153 7.144 83.8273 6.836 84.2353 6.604C84.6513 6.372 85.0993 6.256 85.5793 6.256ZM97.0375 9.532C97.0375 9.772 97.0215 9.988 96.9895 10.18H92.1295C92.1695 10.66 92.3375 11.036 92.6335 11.308C92.9295 11.58 93.2935 11.716 93.7255 11.716C94.3495 11.716 94.7935 11.448 95.0575 10.912H96.8695C96.6775 11.552 96.3095 12.08 95.7655 12.496C95.2215 12.904 94.5535 13.108 93.7615 13.108C93.1215 13.108 92.5455 12.968 92.0335 12.688C91.5295 12.4 91.1335 11.996 90.8455 11.476C90.5655 10.956 90.4255 10.356 90.4255 9.676C90.4255 8.988 90.5655 8.384 90.8455 7.864C91.1255 7.344 91.5175 6.944 92.0215 6.664C92.5255 6.384 93.1055 6.244 93.7615 6.244C94.3935 6.244 94.9575 6.38 95.4535 6.652C95.9575 6.924 96.3455 7.312 96.6175 7.816C96.8975 8.312 97.0375 8.884 97.0375 9.532ZM95.2975 9.052C95.2895 8.62 95.1335 8.276 94.8295 8.02C94.5255 7.756 94.1535 7.624 93.7135 7.624C93.2975 7.624 92.9455 7.752 92.6575 8.008C92.3775 8.256 92.2055 8.604 92.1415 9.052H95.2975ZM105.215 4.48L105.023 10.276H103.607L103.403 4.48H105.215ZM104.351 13.084C104.047 13.084 103.795 12.992 103.595 12.808C103.403 12.616 103.307 12.38 103.307 12.1C103.307 11.82 103.403 11.588 103.595 11.404C103.795 11.212 104.047 11.116 104.351 11.116C104.647 11.116 104.891 11.212 105.083 11.404C105.275 11.588 105.371 11.82 105.371 12.1C105.371 12.38 105.275 12.616 105.083 12.808C104.891 12.992 104.647 13.084 104.351 13.084Z" fill="black"/>
</svg>
