<svg width="51" height="65" viewBox="0 0 51 65" fill="none" xmlns="http://www.w3.org/2000/svg">
<path d="M14.5276 1.02848C14.5119 0.752791 14.7226 0.516533 14.9983 0.500789L19.491 0.244198C19.7667 0.228454 20.003 0.439182 20.0187 0.714876C20.0344 0.990569 19.8237 1.22683 19.548 1.24257L15.5545 1.47065L15.7826 5.46415C15.7984 5.73984 15.5876 5.97609 15.3119 5.99184C15.0362 6.00759 14.8 5.79686 14.7842 5.52116L14.5276 1.02848ZM15.3597 0.626837C16.5272 1.66825 17.6561 2.67551 18.7442 3.65339L18.0757 4.39715C16.9893 3.42071 15.8617 2.41467 14.694 1.37311L15.3597 0.626837ZM25.4211 9.83968C27.8021 12.1556 29.8805 14.357 31.6223 16.5411L30.8405 17.1646C29.1345 15.0255 27.0884 12.8564 24.7239 10.5565L25.4211 9.83968ZM36.3514 24.4165C37.4608 27.2371 37.9962 30.2024 37.9066 33.492L36.907 33.4648C36.993 30.3071 36.4801 27.4757 35.4208 24.7826L36.3514 24.4165ZM36.3409 42.5346C35.9314 43.9208 35.4406 45.365 34.8664 46.875L33.9317 46.5196C34.4979 45.0305 34.9804 43.6104 35.3818 42.2513L36.3409 42.5346Z" fill="black"/>
<path d="M6.528 51.624V52.98H4.296V60H2.616V52.98H0.384V51.624H6.528ZM11.6658 60.108C11.0258 60.108 10.4498 59.968 9.93778 59.688C9.42578 59.4 9.02178 58.996 8.72578 58.476C8.43778 57.956 8.29378 57.356 8.29378 56.676C8.29378 55.996 8.44178 55.396 8.73778 54.876C9.04178 54.356 9.45378 53.956 9.97378 53.676C10.4938 53.388 11.0738 53.244 11.7138 53.244C12.3538 53.244 12.9338 53.388 13.4538 53.676C13.9738 53.956 14.3818 54.356 14.6778 54.876C14.9818 55.396 15.1338 55.996 15.1338 56.676C15.1338 57.356 14.9778 57.956 14.6658 58.476C14.3618 58.996 13.9458 59.4 13.4178 59.688C12.8978 59.968 12.3138 60.108 11.6658 60.108ZM11.6658 58.644C11.9698 58.644 12.2538 58.572 12.5178 58.428C12.7898 58.276 13.0058 58.052 13.1658 57.756C13.3258 57.46 13.4058 57.1 13.4058 56.676C13.4058 56.044 13.2378 55.56 12.9018 55.224C12.5738 54.88 12.1698 54.708 11.6898 54.708C11.2098 54.708 10.8058 54.88 10.4778 55.224C10.1578 55.56 9.99778 56.044 9.99778 56.676C9.99778 57.308 10.1538 57.796 10.4658 58.14C10.7858 58.476 11.1858 58.644 11.6658 58.644ZM23.6021 53.352V60H21.9101V59.16C21.6941 59.448 21.4101 59.676 21.0581 59.844C20.7141 60.004 20.3381 60.084 19.9301 60.084C19.4101 60.084 18.9501 59.976 18.5501 59.76C18.1501 59.536 17.8341 59.212 17.6021 58.788C17.3781 58.356 17.2661 57.844 17.2661 57.252V53.352H18.9461V57.012C18.9461 57.54 19.0781 57.948 19.3421 58.236C19.6061 58.516 19.9661 58.656 20.4221 58.656C20.8861 58.656 21.2501 58.516 21.5141 58.236C21.7781 57.948 21.9101 57.54 21.9101 57.012V53.352H23.6021ZM25.7877 56.676C25.7877 55.988 25.9277 55.388 26.2077 54.876C26.4877 54.356 26.8757 53.956 27.3717 53.676C27.8677 53.388 28.4357 53.244 29.0757 53.244C29.8997 53.244 30.5797 53.452 31.1157 53.868C31.6597 54.276 32.0237 54.852 32.2077 55.596H30.3957C30.2997 55.308 30.1357 55.084 29.9037 54.924C29.6797 54.756 29.3997 54.672 29.0637 54.672C28.5837 54.672 28.2037 54.848 27.9237 55.2C27.6437 55.544 27.5037 56.036 27.5037 56.676C27.5037 57.308 27.6437 57.8 27.9237 58.152C28.2037 58.496 28.5837 58.668 29.0637 58.668C29.7437 58.668 30.1877 58.364 30.3957 57.756H32.2077C32.0237 58.476 31.6597 59.048 31.1157 59.472C30.5717 59.896 29.8917 60.108 29.0757 60.108C28.4357 60.108 27.8677 59.968 27.3717 59.688C26.8757 59.4 26.4877 59 26.2077 58.488C25.9277 57.968 25.7877 57.364 25.7877 56.676ZM38.1425 53.256C38.6465 53.256 39.0945 53.368 39.4865 53.592C39.8785 53.808 40.1825 54.132 40.3985 54.564C40.6225 54.988 40.7345 55.5 40.7345 56.1V60H39.0545V56.328C39.0545 55.8 38.9225 55.396 38.6585 55.116C38.3945 54.828 38.0345 54.684 37.5785 54.684C37.1145 54.684 36.7465 54.828 36.4745 55.116C36.2105 55.396 36.0785 55.8 36.0785 56.328V60H34.3985V51.12H36.0785V54.18C36.2945 53.892 36.5825 53.668 36.9425 53.508C37.3025 53.34 37.7025 53.256 38.1425 53.256ZM49.2834 51.48L49.0914 57.276H47.6754L47.4714 51.48H49.2834ZM48.4194 60.084C48.1154 60.084 47.8634 59.992 47.6634 59.808C47.4714 59.616 47.3754 59.38 47.3754 59.1C47.3754 58.82 47.4714 58.588 47.6634 58.404C47.8634 58.212 48.1154 58.116 48.4194 58.116C48.7154 58.116 48.9594 58.212 49.1514 58.404C49.3434 58.588 49.4394 58.82 49.4394 59.1C49.4394 59.38 49.3434 59.616 49.1514 59.808C48.9594 59.992 48.7154 60.084 48.4194 60.084Z" fill="black"/>
</svg>
