<svg width="78" height="69" viewBox="0 0 78 69" fill="none" xmlns="http://www.w3.org/2000/svg">
<path d="M21.4238 0.780303C21.6978 0.746626 21.9473 0.941513 21.981 1.21559L22.5298 5.68201C22.5635 5.95609 22.3686 6.20558 22.0945 6.23925C21.8204 6.27293 21.5709 6.07804 21.5373 5.80396L21.0494 1.83382L17.0793 2.32163C16.8052 2.3553 16.5557 2.16042 16.5221 1.88634C16.4884 1.61225 16.6833 1.36277 16.9573 1.32909L21.4238 0.780303ZM21.8788 1.58437C20.6589 3.146 19.5397 4.70759 18.5289 6.26828L17.6896 5.72469C18.7179 4.13688 19.8545 2.5513 21.0907 0.968774L21.8788 1.58437ZM13.5176 16.5403C12.314 20.3067 11.8504 24.0535 12.2343 27.7732L11.2396 27.8758C10.8398 24.0021 11.3249 20.1164 12.5651 16.2359L13.5176 16.5403ZM15.8223 38.4866C17.5493 41.4673 19.912 44.4379 22.9797 47.3907L22.2862 48.1111C19.1624 45.1043 16.7379 42.0616 14.957 38.9879L15.8223 38.4866ZM31.9428 54.5842C33.4668 55.6269 35.0875 56.6661 36.8079 57.7015L36.2923 58.5583C34.5564 57.5136 32.9193 56.464 31.3782 55.4096L31.9428 54.5842Z" fill="black"/>
<path d="M49.352 55.624L46.28 64H44.24L41.168 55.624H42.968L45.272 62.284L47.564 55.624H49.352ZM54.2713 64.108C53.6313 64.108 53.0553 63.968 52.5433 63.688C52.0313 63.4 51.6273 62.996 51.3313 62.476C51.0433 61.956 50.8993 61.356 50.8993 60.676C50.8993 59.996 51.0473 59.396 51.3433 58.876C51.6473 58.356 52.0593 57.956 52.5793 57.676C53.0993 57.388 53.6793 57.244 54.3193 57.244C54.9593 57.244 55.5393 57.388 56.0593 57.676C56.5793 57.956 56.9873 58.356 57.2833 58.876C57.5873 59.396 57.7393 59.996 57.7393 60.676C57.7393 61.356 57.5833 61.956 57.2713 62.476C56.9673 62.996 56.5513 63.4 56.0233 63.688C55.5033 63.968 54.9193 64.108 54.2713 64.108ZM54.2713 62.644C54.5753 62.644 54.8593 62.572 55.1233 62.428C55.3953 62.276 55.6113 62.052 55.7713 61.756C55.9313 61.46 56.0113 61.1 56.0113 60.676C56.0113 60.044 55.8433 59.56 55.5073 59.224C55.1793 58.88 54.7753 58.708 54.2953 58.708C53.8153 58.708 53.4113 58.88 53.0833 59.224C52.7633 59.56 52.6033 60.044 52.6033 60.676C52.6033 61.308 52.7593 61.796 53.0713 62.14C53.3913 62.476 53.7913 62.644 54.2713 62.644ZM60.7836 56.56C60.4876 56.56 60.2396 56.468 60.0396 56.284C59.8476 56.092 59.7516 55.856 59.7516 55.576C59.7516 55.296 59.8476 55.064 60.0396 54.88C60.2396 54.688 60.4876 54.592 60.7836 54.592C61.0796 54.592 61.3236 54.688 61.5156 54.88C61.7156 55.064 61.8156 55.296 61.8156 55.576C61.8156 55.856 61.7156 56.092 61.5156 56.284C61.3236 56.468 61.0796 56.56 60.7836 56.56ZM61.6116 57.352V64H59.9316V57.352H61.6116ZM65.9114 58.384C66.1274 58.032 66.4074 57.756 66.7514 57.556C67.1034 57.356 67.5034 57.256 67.9514 57.256V59.02H67.5074C66.9794 59.02 66.5794 59.144 66.3074 59.392C66.0434 59.64 65.9114 60.072 65.9114 60.688V64H64.2314V57.352H65.9114V58.384ZM76.0344 55.48L75.8424 61.276H74.4264L74.2224 55.48H76.0344ZM75.1704 64.084C74.8664 64.084 74.6144 63.992 74.4144 63.808C74.2224 63.616 74.1264 63.38 74.1264 63.1C74.1264 62.82 74.2224 62.588 74.4144 62.404C74.6144 62.212 74.8664 62.116 75.1704 62.116C75.4664 62.116 75.7104 62.212 75.9024 62.404C76.0944 62.588 76.1904 62.82 76.1904 63.1C76.1904 63.38 76.0944 63.616 75.9024 63.808C75.7104 63.992 75.4664 64.084 75.1704 64.084Z" fill="black"/>
</svg>
