<svg width="75" height="69" viewBox="0 0 75 69" fill="none" xmlns="http://www.w3.org/2000/svg">
<path d="M21.4238 0.780303C21.6978 0.746626 21.9473 0.941513 21.981 1.21559L22.5298 5.68201C22.5635 5.95609 22.3686 6.20558 22.0945 6.23925C21.8204 6.27293 21.5709 6.07804 21.5373 5.80396L21.0494 1.83382L17.0793 2.32163C16.8052 2.3553 16.5557 2.16042 16.5221 1.88634C16.4884 1.61225 16.6833 1.36277 16.9573 1.32909L21.4238 0.780303ZM21.8788 1.58437C20.6589 3.146 19.5397 4.70759 18.5289 6.26828L17.6896 5.72469C18.7179 4.13688 19.8545 2.5513 21.0907 0.968774L21.8788 1.58437ZM13.5176 16.5403C12.314 20.3067 11.8504 24.0535 12.2343 27.7732L11.2396 27.8758C10.8398 24.0021 11.3249 20.1164 12.5651 16.2359L13.5176 16.5403ZM15.8223 38.4866C17.5493 41.4673 19.912 44.4379 22.9797 47.3907L22.2862 48.1111C19.1624 45.1043 16.7379 42.0616 14.957 38.9879L15.8223 38.4866ZM31.9428 54.5842C33.4668 55.6269 35.0875 56.6661 36.8079 57.7015L36.2923 58.5583C34.5564 57.5136 32.9193 56.464 31.3782 55.4096L31.9428 54.5842Z" fill="black"/>
<path d="M44.72 64.084C44.136 64.084 43.608 63.984 43.136 63.784C42.672 63.584 42.304 63.296 42.032 62.92C41.76 62.544 41.62 62.1 41.612 61.588H43.412C43.436 61.932 43.556 62.204 43.772 62.404C43.996 62.604 44.3 62.704 44.684 62.704C45.076 62.704 45.384 62.612 45.608 62.428C45.832 62.236 45.944 61.988 45.944 61.684C45.944 61.436 45.868 61.232 45.716 61.072C45.564 60.912 45.372 60.788 45.14 60.7C44.916 60.604 44.604 60.5 44.204 60.388C43.66 60.228 43.216 60.072 42.872 59.92C42.536 59.76 42.244 59.524 41.996 59.212C41.756 58.892 41.636 58.468 41.636 57.94C41.636 57.444 41.76 57.012 42.008 56.644C42.256 56.276 42.604 55.996 43.052 55.804C43.5 55.604 44.012 55.504 44.588 55.504C45.452 55.504 46.152 55.716 46.688 56.14C47.232 56.556 47.532 57.14 47.588 57.892H45.74C45.724 57.604 45.6 57.368 45.368 57.184C45.144 56.992 44.844 56.896 44.468 56.896C44.14 56.896 43.876 56.98 43.676 57.148C43.484 57.316 43.388 57.56 43.388 57.88C43.388 58.104 43.46 58.292 43.604 58.444C43.756 58.588 43.94 58.708 44.156 58.804C44.38 58.892 44.692 58.996 45.092 59.116C45.636 59.276 46.08 59.436 46.424 59.596C46.768 59.756 47.064 59.996 47.312 60.316C47.56 60.636 47.684 61.056 47.684 61.576C47.684 62.024 47.568 62.44 47.336 62.824C47.104 63.208 46.764 63.516 46.316 63.748C45.868 63.972 45.336 64.084 44.72 64.084ZM56.2805 60.532C56.2805 60.772 56.2645 60.988 56.2325 61.18H51.3725C51.4125 61.66 51.5805 62.036 51.8765 62.308C52.1725 62.58 52.5365 62.716 52.9685 62.716C53.5925 62.716 54.0365 62.448 54.3005 61.912H56.1125C55.9205 62.552 55.5525 63.08 55.0085 63.496C54.4645 63.904 53.7965 64.108 53.0045 64.108C52.3645 64.108 51.7885 63.968 51.2765 63.688C50.7725 63.4 50.3765 62.996 50.0885 62.476C49.8085 61.956 49.6685 61.356 49.6685 60.676C49.6685 59.988 49.8085 59.384 50.0885 58.864C50.3685 58.344 50.7605 57.944 51.2645 57.664C51.7685 57.384 52.3485 57.244 53.0045 57.244C53.6365 57.244 54.2005 57.38 54.6965 57.652C55.2005 57.924 55.5885 58.312 55.8605 58.816C56.1405 59.312 56.2805 59.884 56.2805 60.532ZM54.5405 60.052C54.5325 59.62 54.3765 59.276 54.0725 59.02C53.7685 58.756 53.3965 58.624 52.9565 58.624C52.5405 58.624 52.1885 58.752 51.9005 59.008C51.6205 59.256 51.4485 59.604 51.3845 60.052H54.5405ZM64.6468 60.532C64.6468 60.772 64.6308 60.988 64.5988 61.18H59.7388C59.7788 61.66 59.9468 62.036 60.2428 62.308C60.5388 62.58 60.9028 62.716 61.3348 62.716C61.9588 62.716 62.4028 62.448 62.6668 61.912H64.4788C64.2868 62.552 63.9188 63.08 63.3748 63.496C62.8308 63.904 62.1628 64.108 61.3708 64.108C60.7308 64.108 60.1548 63.968 59.6428 63.688C59.1388 63.4 58.7428 62.996 58.4548 62.476C58.1748 61.956 58.0348 61.356 58.0348 60.676C58.0348 59.988 58.1748 59.384 58.4548 58.864C58.7348 58.344 59.1268 57.944 59.6308 57.664C60.1348 57.384 60.7148 57.244 61.3708 57.244C62.0028 57.244 62.5668 57.38 63.0628 57.652C63.5668 57.924 63.9548 58.312 64.2268 58.816C64.5068 59.312 64.6468 59.884 64.6468 60.532ZM62.9068 60.052C62.8988 59.62 62.7428 59.276 62.4388 59.02C62.1348 58.756 61.7628 58.624 61.3228 58.624C60.9068 58.624 60.5548 58.752 60.2668 59.008C59.9868 59.256 59.8148 59.604 59.7508 60.052H62.9068ZM72.8244 55.48L72.6324 61.276H71.2164L71.0124 55.48H72.8244ZM71.9604 64.084C71.6564 64.084 71.4044 63.992 71.2044 63.808C71.0124 63.616 70.9164 63.38 70.9164 63.1C70.9164 62.82 71.0124 62.588 71.2044 62.404C71.4044 62.212 71.6564 62.116 71.9604 62.116C72.2564 62.116 72.5004 62.212 72.6924 62.404C72.8844 62.588 72.9804 62.82 72.9804 63.1C72.9804 63.38 72.8844 63.616 72.6924 63.808C72.5004 63.992 72.2564 64.084 71.9604 64.084Z" fill="black"/>
</svg>
