<svg width="126" height="49" viewBox="0 0 126 49" fill="none" xmlns="http://www.w3.org/2000/svg">
<path d="M2.56003 48.2375C2.69122 48.4805 2.99455 48.5712 3.23754 48.44L7.19727 46.3021C7.44026 46.1709 7.53089 45.8676 7.3997 45.6246C7.26851 45.3816 6.96518 45.291 6.72219 45.4221L3.20243 47.3225L1.30209 43.8027C1.1709 43.5597 0.867568 43.4691 0.624579 43.6003C0.38159 43.7315 0.29096 44.0348 0.422151 44.2778L2.56003 48.2375ZM3.47907 48.1431C3.94202 46.5937 4.42316 45.0285 4.93828 43.4602L3.98822 43.1482C3.46927 44.7281 2.9853 46.3026 2.52093 47.8569L3.47907 48.1431ZM8.45816 34.3413C9.81061 31.4152 11.3965 28.5778 13.3236 25.9213L12.5141 25.3341C10.5416 28.0533 8.92428 30.9494 7.55043 33.9218L8.45816 34.3413ZM19.9281 18.8391C22.2847 16.8867 24.9877 15.1394 28.1125 13.662L27.6851 12.7579C24.4852 14.2709 21.7113 16.0631 19.2902 18.0691L19.9281 18.8391ZM37.2968 10.4564C38.8159 10.0852 40.4087 9.76293 42.0796 9.49363L41.9204 8.50637C40.2244 8.77972 38.6055 9.10715 37.0594 9.485L37.2968 10.4564Z" fill="black"/>
<path d="M51.42 8.8C51.42 7.976 51.604 7.24 51.972 6.592C52.348 5.936 52.856 5.428 53.496 5.068C54.144 4.7 54.868 4.516 55.668 4.516C56.604 4.516 57.424 4.756 58.128 5.236C58.832 5.716 59.324 6.38 59.604 7.228H57.672C57.48 6.828 57.208 6.528 56.856 6.328C56.512 6.128 56.112 6.028 55.656 6.028C55.168 6.028 54.732 6.144 54.348 6.376C53.972 6.6 53.676 6.92 53.46 7.336C53.252 7.752 53.148 8.24 53.148 8.8C53.148 9.352 53.252 9.84 53.46 10.264C53.676 10.68 53.972 11.004 54.348 11.236C54.732 11.46 55.168 11.572 55.656 11.572C56.112 11.572 56.512 11.472 56.856 11.272C57.208 11.064 57.48 10.76 57.672 10.36H59.604C59.324 11.216 58.832 11.884 58.128 12.364C57.432 12.836 56.612 13.072 55.668 13.072C54.868 13.072 54.144 12.892 53.496 12.532C52.856 12.164 52.348 11.656 51.972 11.008C51.604 10.36 51.42 9.624 51.42 8.8ZM62.3349 4.624H64.0989L62.8029 7.648H61.6509L62.3349 4.624ZM72.4436 9.532C72.4436 9.772 72.4276 9.988 72.3956 10.18H67.5356C67.5756 10.66 67.7436 11.036 68.0396 11.308C68.3356 11.58 68.6996 11.716 69.1316 11.716C69.7556 11.716 70.1996 11.448 70.4636 10.912H72.2756C72.0836 11.552 71.7156 12.08 71.1716 12.496C70.6276 12.904 69.9596 13.108 69.1676 13.108C68.5276 13.108 67.9516 12.968 67.4396 12.688C66.9356 12.4 66.5396 11.996 66.2516 11.476C65.9716 10.956 65.8316 10.356 65.8316 9.676C65.8316 8.988 65.9716 8.384 66.2516 7.864C66.5316 7.344 66.9236 6.944 67.4276 6.664C67.9316 6.384 68.5116 6.244 69.1676 6.244C69.7996 6.244 70.3636 6.38 70.8596 6.652C71.3636 6.924 71.7516 7.312 72.0236 7.816C72.3036 8.312 72.4436 8.884 72.4436 9.532ZM70.7036 9.052C70.6956 8.62 70.5396 8.276 70.2356 8.02C69.9316 7.756 69.5596 7.624 69.1196 7.624C68.7036 7.624 68.3516 7.752 68.0636 8.008C67.7836 8.256 67.6116 8.604 67.5476 9.052H70.7036ZM77.1739 13.108C76.6299 13.108 76.1419 13.012 75.7099 12.82C75.2779 12.62 74.9339 12.352 74.6779 12.016C74.4299 11.68 74.2939 11.308 74.2699 10.9H75.9619C75.9939 11.156 76.1179 11.368 76.3339 11.536C76.5579 11.704 76.8339 11.788 77.1619 11.788C77.4819 11.788 77.7299 11.724 77.9059 11.596C78.0899 11.468 78.1819 11.304 78.1819 11.104C78.1819 10.888 78.0699 10.728 77.8459 10.624C77.6299 10.512 77.2819 10.392 76.8019 10.264C76.3059 10.144 75.8979 10.02 75.5779 9.892C75.2659 9.764 74.9939 9.568 74.7619 9.304C74.5379 9.04 74.4259 8.684 74.4259 8.236C74.4259 7.868 74.5299 7.532 74.7379 7.228C74.9539 6.924 75.2579 6.684 75.6499 6.508C76.0499 6.332 76.5179 6.244 77.0539 6.244C77.8459 6.244 78.4779 6.444 78.9499 6.844C79.4219 7.236 79.6819 7.768 79.7299 8.44H78.1219C78.0979 8.176 77.9859 7.968 77.7859 7.816C77.5939 7.656 77.3339 7.576 77.0059 7.576C76.7019 7.576 76.4659 7.632 76.2979 7.744C76.1379 7.856 76.0579 8.012 76.0579 8.212C76.0579 8.436 76.1699 8.608 76.3939 8.728C76.6179 8.84 76.9659 8.956 77.4379 9.076C77.9179 9.196 78.3139 9.32 78.6259 9.448C78.9379 9.576 79.2059 9.776 79.4299 10.048C79.6619 10.312 79.7819 10.664 79.7899 11.104C79.7899 11.488 79.6819 11.832 79.4659 12.136C79.2579 12.44 78.9539 12.68 78.5539 12.856C78.1619 13.024 77.7019 13.108 77.1739 13.108ZM84.0849 7.732V10.948C84.0849 11.172 84.1369 11.336 84.2409 11.44C84.3529 11.536 84.5369 11.584 84.7929 11.584H85.5729V13H84.5169C83.1009 13 82.3929 12.312 82.3929 10.936V7.732H81.6009V6.352H82.3929V4.708H84.0849V6.352H85.5729V7.732H84.0849ZM99.8167 6.256C100.633 6.256 101.289 6.508 101.785 7.012C102.289 7.508 102.541 8.204 102.541 9.1V13H100.861V9.328C100.861 8.808 100.729 8.412 100.465 8.14C100.201 7.86 99.8407 7.72 99.3847 7.72C98.9287 7.72 98.5647 7.86 98.2927 8.14C98.0287 8.412 97.8967 8.808 97.8967 9.328V13H96.2167V9.328C96.2167 8.808 96.0847 8.412 95.8207 8.14C95.5567 7.86 95.1967 7.72 94.7407 7.72C94.2767 7.72 93.9087 7.86 93.6367 8.14C93.3727 8.412 93.2407 8.808 93.2407 9.328V13H91.5607V6.352H93.2407V7.156C93.4567 6.876 93.7327 6.656 94.0687 6.496C94.4127 6.336 94.7887 6.256 95.1967 6.256C95.7167 6.256 96.1807 6.368 96.5887 6.592C96.9967 6.808 97.3127 7.12 97.5367 7.528C97.7527 7.144 98.0647 6.836 98.4727 6.604C98.8887 6.372 99.3367 6.256 99.8167 6.256ZM108.047 13.108C107.407 13.108 106.831 12.968 106.319 12.688C105.807 12.4 105.403 11.996 105.107 11.476C104.819 10.956 104.675 10.356 104.675 9.676C104.675 8.996 104.823 8.396 105.119 7.876C105.423 7.356 105.835 6.956 106.355 6.676C106.875 6.388 107.455 6.244 108.095 6.244C108.735 6.244 109.315 6.388 109.835 6.676C110.355 6.956 110.763 7.356 111.059 7.876C111.363 8.396 111.515 8.996 111.515 9.676C111.515 10.356 111.359 10.956 111.047 11.476C110.743 11.996 110.327 12.4 109.799 12.688C109.279 12.968 108.695 13.108 108.047 13.108ZM108.047 11.644C108.351 11.644 108.635 11.572 108.899 11.428C109.171 11.276 109.387 11.052 109.547 10.756C109.707 10.46 109.787 10.1 109.787 9.676C109.787 9.044 109.619 8.56 109.283 8.224C108.955 7.88 108.551 7.708 108.071 7.708C107.591 7.708 107.187 7.88 106.859 8.224C106.539 8.56 106.379 9.044 106.379 9.676C106.379 10.308 106.535 10.796 106.847 11.14C107.167 11.476 107.567 11.644 108.047 11.644ZM114.559 5.56C114.263 5.56 114.015 5.468 113.815 5.284C113.623 5.092 113.527 4.856 113.527 4.576C113.527 4.296 113.623 4.064 113.815 3.88C114.015 3.688 114.263 3.592 114.559 3.592C114.855 3.592 115.099 3.688 115.291 3.88C115.491 4.064 115.591 4.296 115.591 4.576C115.591 4.856 115.491 5.092 115.291 5.284C115.099 5.468 114.855 5.56 114.559 5.56ZM115.387 6.352V13H113.707V6.352H115.387ZM123.998 4.48L123.806 10.276H122.39L122.186 4.48H123.998ZM123.134 13.084C122.83 13.084 122.578 12.992 122.378 12.808C122.186 12.616 122.09 12.38 122.09 12.1C122.09 11.82 122.186 11.588 122.378 11.404C122.578 11.212 122.83 11.116 123.134 11.116C123.43 11.116 123.674 11.212 123.866 11.404C124.058 11.588 124.154 11.82 124.154 12.1C124.154 12.38 124.058 12.616 123.866 12.808C123.674 12.992 123.43 13.084 123.134 13.084Z" fill="black"/>
</svg>
