<svg width="190" height="45" viewBox="0 0 190 45" fill="none" xmlns="http://www.w3.org/2000/svg">
<rect x="1" y="1" width="188" height="43" rx="16" fill="url(#paint0_linear_816_847)" stroke="white" stroke-width="2"/>
<path d="M59.78 14.6H60.34L60.52 19.2H59.78C59.4867 18.0267 58.92 17.1067 58.08 16.44C57.24 15.7733 56.2267 15.44 55.04 15.44C54.2267 15.44 53.5 15.6 52.86 15.92C52.22 16.24 51.68 16.7 51.24 17.3C50.8 17.9 50.46 18.6333 50.22 19.5C49.9933 20.3667 49.88 21.3467 49.88 22.44C49.88 24.5867 50.3267 26.24 51.22 27.4C52.1133 28.5467 53.4067 29.12 55.1 29.12C57.6733 29.12 59.3267 27.7533 60.06 25.02H60.88V30H60.18L59.72 28.42C58.32 29.6067 56.6267 30.2 54.64 30.2C53.5067 30.2 52.48 30.02 51.56 29.66C50.6533 29.3 49.8733 28.7933 49.22 28.14C48.58 27.4733 48.08 26.6667 47.72 25.72C47.3733 24.7733 47.2 23.72 47.2 22.56C47.2 21.3467 47.3867 20.24 47.76 19.24C48.1333 18.24 48.6533 17.38 49.32 16.66C50 15.94 50.8067 15.3867 51.74 15C52.6867 14.6 53.7267 14.4 54.86 14.4C55.66 14.4 56.4133 14.5133 57.12 14.74C57.8267 14.9667 58.5933 15.3333 59.42 15.84L59.78 14.6ZM73.3952 24.42H68.0552C67.8285 24.9667 67.6352 25.4533 67.4752 25.88C67.3152 26.2933 67.1818 26.6533 67.0752 26.96C66.9818 27.2667 66.9152 27.5267 66.8752 27.74C66.8352 27.9533 66.8152 28.1267 66.8152 28.26C66.8152 28.6333 66.9352 28.8933 67.1752 29.04C67.4152 29.1733 67.8152 29.24 68.3752 29.24V30H63.5152V29.24C63.8218 29.2 64.0818 29.1467 64.2952 29.08C64.5218 29.0133 64.7152 28.92 64.8752 28.8C65.0485 28.68 65.1952 28.5267 65.3152 28.34C65.4485 28.14 65.5752 27.9 65.6952 27.62L70.8952 14.6H71.7552L76.2952 25.88C76.6018 26.6267 76.8685 27.2267 77.0952 27.68C77.3218 28.12 77.5418 28.4533 77.7552 28.68C77.9685 28.9067 78.1952 29.0533 78.4352 29.12C78.6885 29.1867 78.9885 29.22 79.3352 29.22V30H72.8152V29.22C73.5218 29.22 74.0085 29.1533 74.2752 29.02C74.5418 28.8867 74.6752 28.6667 74.6752 28.36C74.6752 28.2267 74.6685 28.1067 74.6552 28C74.6418 27.88 74.6152 27.7533 74.5752 27.62C74.5485 27.4867 74.5018 27.34 74.4352 27.18C74.3818 27.0067 74.3085 26.8067 74.2152 26.58L73.3952 24.42ZM68.4552 23.42H73.0152L70.7952 17.52L68.4552 23.42ZM93.8444 18.46C93.8444 19.1667 93.731 19.8 93.5044 20.36C93.2777 20.92 92.9177 21.3933 92.4244 21.78C91.9444 22.1667 91.311 22.4667 90.5244 22.68C89.751 22.8933 88.8044 23 87.6844 23H85.8844V26.86C85.8844 27.3533 85.911 27.76 85.9644 28.08C86.031 28.3867 86.1577 28.6267 86.3444 28.8C86.5444 28.9733 86.8244 29.0933 87.1844 29.16C87.5577 29.2133 88.0444 29.24 88.6444 29.24V30H81.5844V29.24C82.051 29.2267 82.4244 29.1867 82.7044 29.12C82.9977 29.0533 83.2244 28.94 83.3844 28.78C83.5444 28.62 83.651 28.3933 83.7044 28.1C83.7577 27.8067 83.7844 27.4267 83.7844 26.96V17.64C83.7844 17.1733 83.7577 16.8 83.7044 16.52C83.6644 16.2267 83.571 16 83.4244 15.84C83.291 15.6667 83.091 15.5533 82.8244 15.5C82.5577 15.4333 82.211 15.3867 81.7844 15.36V14.6H88.0644C89.9044 14.6 91.3244 14.94 92.3244 15.62C93.3377 16.3 93.8444 17.2467 93.8444 18.46ZM85.8844 22H87.3044C88.6377 22 89.6244 21.7467 90.2644 21.24C90.9177 20.72 91.2444 19.8733 91.2444 18.7C91.2444 17.5667 90.9844 16.76 90.4644 16.28C89.9577 15.7867 89.1577 15.54 88.0644 15.54H86.2244C85.9977 15.54 85.8844 15.6533 85.8844 15.88V22ZM97.1748 25.3H97.9148C98.0082 25.9 98.1815 26.44 98.4348 26.92C98.7015 27.4 99.0282 27.8067 99.4148 28.14C99.8148 28.4733 100.268 28.7333 100.775 28.92C101.295 29.0933 101.855 29.18 102.455 29.18C103.442 29.18 104.222 28.9467 104.795 28.48C105.368 28.0133 105.655 27.38 105.655 26.58C105.655 26.2467 105.595 25.94 105.475 25.66C105.368 25.38 105.182 25.1133 104.915 24.86C104.648 24.5933 104.288 24.3333 103.835 24.08C103.395 23.8267 102.835 23.5533 102.155 23.26C101.328 22.9 100.635 22.5533 100.075 22.22C99.5148 21.8867 99.0682 21.54 98.7348 21.18C98.4015 20.82 98.1615 20.44 98.0148 20.04C97.8815 19.6267 97.8148 19.16 97.8148 18.64C97.8148 18.0267 97.9215 17.46 98.1348 16.94C98.3615 16.42 98.6748 15.9733 99.0748 15.6C99.4748 15.2133 99.9482 14.92 100.495 14.72C101.042 14.5067 101.642 14.4 102.295 14.4C102.882 14.4 103.428 14.4933 103.935 14.68C104.442 14.8667 104.955 15.1667 105.475 15.58L105.995 14.68H106.455L106.675 18.66H105.935C105.615 17.5667 105.148 16.7533 104.535 16.22C103.935 15.6867 103.208 15.42 102.355 15.42C101.542 15.42 100.895 15.62 100.415 16.02C99.9348 16.42 99.6948 16.96 99.6948 17.64C99.6948 17.96 99.7482 18.2533 99.8548 18.52C99.9615 18.7733 100.135 19.02 100.375 19.26C100.615 19.4867 100.928 19.72 101.315 19.96C101.702 20.1867 102.182 20.4267 102.755 20.68C103.742 21.12 104.562 21.5333 105.215 21.92C105.868 22.2933 106.388 22.6733 106.775 23.06C107.162 23.4333 107.435 23.8333 107.595 24.26C107.755 24.6733 107.835 25.14 107.835 25.66C107.835 26.3267 107.702 26.94 107.435 27.5C107.168 28.06 106.795 28.54 106.315 28.94C105.835 29.34 105.262 29.6533 104.595 29.88C103.928 30.0933 103.195 30.2 102.395 30.2C101.635 30.2 100.948 30.0933 100.335 29.88C99.7348 29.6667 99.1215 29.3067 98.4948 28.8L97.9348 29.78H97.4748L97.1748 25.3ZM124.945 23.8C124.945 24.8533 124.839 25.78 124.625 26.58C124.425 27.38 124.092 28.0467 123.625 28.58C123.172 29.1133 122.579 29.52 121.845 29.8C121.112 30.0667 120.225 30.2 119.185 30.2C118.199 30.2 117.339 30.1067 116.605 29.92C115.872 29.72 115.259 29.4 114.765 28.96C114.272 28.5067 113.905 27.92 113.665 27.2C113.425 26.48 113.305 25.5933 113.305 24.54V19.26C113.305 18.2733 113.279 17.5133 113.225 16.98C113.185 16.4467 113.052 16.0533 112.825 15.8C112.665 15.6267 112.445 15.5133 112.165 15.46C111.899 15.3933 111.539 15.36 111.085 15.36V14.6H117.905V15.36C117.452 15.36 117.085 15.3867 116.805 15.44C116.525 15.4933 116.305 15.6267 116.145 15.84C115.959 16.08 115.839 16.4667 115.785 17C115.732 17.52 115.705 18.2733 115.705 19.26V24.7C115.705 25.38 115.772 25.9867 115.905 26.52C116.052 27.04 116.285 27.4867 116.605 27.86C116.925 28.22 117.339 28.4933 117.845 28.68C118.365 28.8667 118.999 28.96 119.745 28.96C121.079 28.96 122.079 28.5933 122.745 27.86C123.412 27.1133 123.745 26.02 123.745 24.58V19.76C123.745 18.5733 123.699 17.6733 123.605 17.06C123.512 16.4467 123.339 16.0133 123.085 15.76C122.899 15.5867 122.665 15.48 122.385 15.44C122.105 15.3867 121.759 15.36 121.345 15.36V14.6H127.145V15.36C126.719 15.36 126.365 15.3933 126.085 15.46C125.819 15.5267 125.605 15.6733 125.445 15.9C125.245 16.18 125.112 16.62 125.045 17.22C124.979 17.8067 124.945 18.6533 124.945 19.76V23.8ZM143.152 30H130.232V29.24C130.699 29.2267 131.072 29.1867 131.352 29.12C131.645 29.0533 131.872 28.94 132.032 28.78C132.192 28.62 132.299 28.3933 132.352 28.1C132.405 27.8067 132.432 27.4267 132.432 26.96V17.64C132.432 17.1733 132.405 16.8 132.352 16.52C132.312 16.2267 132.219 16 132.072 15.84C131.939 15.6667 131.739 15.5533 131.472 15.5C131.205 15.4333 130.859 15.3867 130.432 15.36V14.6H136.512V15.36C136.085 15.3733 135.739 15.4133 135.472 15.48C135.219 15.5467 135.019 15.6667 134.872 15.84C134.739 16.0133 134.645 16.2533 134.592 16.56C134.552 16.8667 134.532 17.2733 134.532 17.78V26.4C134.532 26.96 134.585 27.42 134.692 27.78C134.812 28.1267 135.005 28.4 135.272 28.6C135.552 28.7867 135.919 28.92 136.372 29C136.825 29.0667 137.399 29.1 138.092 29.1C138.852 29.1 139.492 29.06 140.012 28.98C140.532 28.8867 140.965 28.7333 141.312 28.52C141.672 28.2933 141.952 27.9867 142.152 27.6C142.365 27.2 142.545 26.6867 142.692 26.06H143.452L143.152 30Z" fill="url(#paint1_linear_816_847)"/>
<defs>
<linearGradient id="paint0_linear_816_847" x1="1.23315e-06" y1="23" x2="190" y2="23" gradientUnits="userSpaceOnUse">
<stop offset="0.502045" stop-color="white"/>
<stop offset="0.502108" stop-color="white" stop-opacity="0"/>
</linearGradient>
<linearGradient id="paint1_linear_816_847" x1="46" y1="23" x2="144" y2="23" gradientUnits="userSpaceOnUse">
<stop offset="0.503125"/>
<stop offset="0.529067" stop-color="white"/>
</linearGradient>
</defs>
</svg>
